<?xml version="1.0" encoding="UTF-8" standalone="no"?>
<svg
   xmlns:dc="http://purl.org/dc/elements/1.1/"
   xmlns:cc="http://creativecommons.org/ns#"
   xmlns:rdf="http://www.w3.org/1999/02/22-rdf-syntax-ns#"
   xmlns:svg="http://www.w3.org/2000/svg"
   xmlns="http://www.w3.org/2000/svg"
   xmlns:sodipodi="http://sodipodi.sourceforge.net/DTD/sodipodi-0.dtd"
   xmlns:inkscape="http://www.inkscape.org/namespaces/inkscape"
   viewBox="0 0 512 512"
   version="1.1"
   id="svg4"
   sodipodi:docname="ios-hand-spock-outline.svg"
   inkscape:version="0.92.2 (5c3e80d, 2017-08-06)">
  <metadata
     id="metadata10">
    <rdf:RDF>
      <cc:Work
         rdf:about="">
        <dc:format>image/svg+xml</dc:format>
        <dc:type
           rdf:resource="http://purl.org/dc/dcmitype/StillImage" />
      </cc:Work>
    </rdf:RDF>
  </metadata>
  <defs
     id="defs8" />
  <sodipodi:namedview
     pagecolor="#ffffff"
     bordercolor="#666666"
     borderopacity="1"
     objecttolerance="10"
     gridtolerance="10"
     guidetolerance="10"
     inkscape:pageopacity="0"
     inkscape:pageshadow="2"
     inkscape:window-width="1920"
     inkscape:window-height="1027"
     id="namedview6"
     showgrid="false"
     inkscape:zoom="0.4609375"
     inkscape:cx="-15.186441"
     inkscape:cy="256"
     inkscape:window-x="0"
     inkscape:window-y="0"
     inkscape:window-maximized="1"
     inkscape:current-layer="svg4" />
  <path
     d="M 63.305067,359.18637 169.20087,458.86493 A 26.250004,26.24998 0 0 0 187.19196,466 h 194.90629 c 11.62383,0 21.86379,-7.64449 25.16719,-18.78842 l 26.09824,-88.03013 a 95.119351,95.119262 0 0 0 3.9252,-27.04814 v -30.21947 c 0,-3.32308 0.39047,-6.64781 1.15992,-9.88066 l 26.02852,-109.4378 c 8.28434,-34.79107 -18.3061,-67.87097 -53.76657,-67.69624 -3.39938,-20.38967 -18.49231,-38.69001 -40.89258,-44.29028 -29.36966,-7.34343 -59.24873,10.38105 -66.65041,39.99021 L 289.30366,196.93689 271.52338,88.66393 C 264.72627,59.07528 235.18107,40.61662 205.649,47.405521 181.35462,52.986923 164.52016,73.9746 163.08954,97.68654 c -34.97567,0.68168 -60.25607,33.27431 -52.55825,67.1376 l 25.4625,111.97913 c -22.30758,-18.46932 -55.193915,-16.39967 -75.04384,4.69383 -20.816253,22.11642 -19.767893,56.86812 2.355117,77.68927 z m 26.305786,-50.70429 0.0016,-8.2e-4 c 5.921836,-6.29344 15.783637,-6.54609 22.030317,-0.66692 l 43.48641,40.92864 c 8.35981,7.86679 22.12056,1.92035 22.12056,-9.55909 v -56.99445 c 0,-0.97863 -0.10993,-1.9548 -0.32567,-2.90883 L 148.92684,156.09274 c -4.59047,-20.19362 25.84149,-26.95545 30.39587,-6.90785 l 24.93668,109.72246 a 13.125002,13.12499 0 0 0 12.79934,10.21616 h 7.05797 c 8.42953,0 14.67867,-7.84792 12.79195,-16.06416 L 202.76724,104.45739 c -4.61262,-20.07221 25.74961,-27.13263 30.38028,-6.97921 l 37.09454,161.46034 a 13.125002,13.12499 0 0 0 12.79195,10.18581 h 10.84207 a 13.125002,13.12499 0 0 0 12.7329,-9.94136 l 34.75828,-139.03465 c 5.00719,-20.03366 35.24227,-12.43511 30.24083,7.56081 l -31.27606,125.1074 c -2.06801,8.27531 4.1959,16.3078 12.73289,16.3078 h 7.95211 A 13.125002,13.12499 0 0 0 373.7852,259.0386 l 22.08527,-92.78137 c 4.77504,-20.05499 35.10692,-12.86824 30.32368,7.22038 l -26.04903,109.43617 a 82.108372,82.108295 0 0 0 -2.23125,19.00006 v 30.21947 c 0,5.3714 -0.77355,10.70589 -2.30097,15.85498 l -23.31329,78.63592 H 192.39685 L 90.278587,330.51319 c -6.258165,-5.88984 -6.557579,-15.77378 -0.667734,-22.03111 z"
     id="path2"
     inkscape:connector-curvature="0"
     style="stroke-width:0.82031226" />
</svg>
