<?xml version="1.0" encoding="UTF-8" standalone="no"?>
<svg
   xmlns:dc="http://purl.org/dc/elements/1.1/"
   xmlns:cc="http://creativecommons.org/ns#"
   xmlns:rdf="http://www.w3.org/1999/02/22-rdf-syntax-ns#"
   xmlns:svg="http://www.w3.org/2000/svg"
   xmlns="http://www.w3.org/2000/svg"
   xmlns:sodipodi="http://sodipodi.sourceforge.net/DTD/sodipodi-0.dtd"
   xmlns:inkscape="http://www.inkscape.org/namespaces/inkscape"
   viewBox="0 0 512 512"
   version="1.1"
   id="svg4"
   sodipodi:docname="telegram.svg"
   width="512"
   height="512"
   inkscape:version="0.92.2 (5c3e80d, 2017-08-06)">
  <metadata
     id="metadata10">
    <rdf:RDF>
      <cc:Work
         rdf:about="">
        <dc:format>image/svg+xml</dc:format>
        <dc:type
           rdf:resource="http://purl.org/dc/dcmitype/StillImage" />
        <dc:title></dc:title>
      </cc:Work>
    </rdf:RDF>
  </metadata>
  <defs
     id="defs8" />
  <sodipodi:namedview
     pagecolor="#ffffff"
     bordercolor="#666666"
     borderopacity="1"
     objecttolerance="10"
     gridtolerance="10"
     guidetolerance="10"
     inkscape:pageopacity="0"
     inkscape:pageshadow="2"
     inkscape:window-width="1920"
     inkscape:window-height="1027"
     id="namedview6"
     showgrid="false"
     inkscape:zoom="0.4609375"
     inkscape:cx="-23.186441"
     inkscape:cy="256"
     inkscape:window-x="0"
     inkscape:window-y="0"
     inkscape:window-maximized="1"
     inkscape:current-layer="svg4" />
  <path
     d="M 256,46 C 139.99193,46 46,139.99194 46,256 46,372.00806 139.99193,466 256,466 372.00806,466 466,372.00806 466,256 466,139.99194 372.00806,46 256,46 Z m 103.1371,143.86694 -34.46371,162.41129 c -2.54033,11.51612 -9.3992,14.31048 -18.96774,8.89112 l -52.5,-38.69758 -25.31855,24.3871 c -2.79436,2.79436 -5.16533,5.16532 -10.58468,5.16532 l 3.72581,-53.43145 97.29435,-87.89516 c 4.23387,-3.72581 -0.93145,-5.84274 -6.52016,-2.11693 L 191.56048,284.28226 139.7379,268.10887 c -11.26209,-3.55645 -11.51613,-11.2621 2.37097,-16.68145 l 202.46371,-78.07258 c 9.39919,-3.3871 17.6129,2.28629 14.56452,16.5121 z"
     id="path2"
     inkscape:connector-curvature="0"
     style="stroke-width:0.84677416" />
</svg>
